<?xml version="1.0" encoding="UTF-8"?>
<!-- Created with Inkscape (http://www.inkscape.org/) -->
<svg width="208.62mm" height="55.86mm" version="1.1" viewBox="0 0 208.62 55.86" xmlns="http://www.w3.org/2000/svg" xmlns:cc="http://creativecommons.org/ns#" xmlns:dc="http://purl.org/dc/elements/1.1/" xmlns:rdf="http://www.w3.org/1999/02/22-rdf-syntax-ns#">
 <metadata>
  <rdf:RDF>
   <cc:Work rdf:about="">
    <dc:format>image/svg+xml</dc:format>
    <dc:type rdf:resource="http://purl.org/dc/dcmitype/StillImage"/>
    <dc:title/>
   </cc:Work>
  </rdf:RDF>
 </metadata>
 <g transform="translate(-7.569 -105.78)">
  <g transform="translate(6.5106 -15.266)" stroke-width=".26458">
   <path d="m98.293 142.88v-21.828h6.8745l0.137 27.746 12.859-15.575h4.352c2.3936 0 4.3484 0.0893 4.344 0.19843-4e-3 0.10915-2.8574 3.6402-6.3399 7.8467-3.7892 4.5771-6.2562 7.7715-6.1435 7.9552 0.1036 0.16881 2.9268 3.611 6.2738 7.6494 3.347 4.0383 6.1251 7.4534 6.1736 7.589 0.0522 0.14603-1.6967 0.2466-4.2883 0.2466h-4.3765l-12.855-15.56-0.1402 15.56h-6.8713zm37.389 21.337c-2.8162-0.97315-4.6488-2.7453-5.5052-5.3237-0.36381-1.0954-0.41345-2.5839-0.34564-10.366l0.0792-9.0868 0.70533-1.3229c0.91346-1.7133 2.6572-3.3896 4.3218-4.1545 1.3115-0.60272 1.4297-0.60865 13.692-0.68631l12.369-0.0783v31.51l-11.972-9e-3c-10.808-8e-3 -12.106-0.0547-13.344-0.48275zm18.375-15.185-0.0697-8.7974-6.8342-0.0707c-4.0997-0.0424-7.2395 0.0385-7.8472 0.20213-0.59804 0.16103-1.3481 0.6544-1.831 1.2043l-0.81792 0.93156v6.3017c0 6.1003 0.019 6.3295 0.59531 7.1738 1.2127 1.7765 1.6058 1.852 9.6567 1.852h7.2176zm12.233-6.1516v-21.828h6.8792v43.656h-6.8792zm18.157 21.395c-2.407-0.73914-4.0225-2.0972-5.271-4.4309-0.56996-1.0654-0.58266-1.2997-0.58266-10.746 0-9.5566 6e-3 -9.6702 0.61159-10.899 0.85082-1.7273 2.4761-3.3143 4.2421-4.1423l1.4963-0.7015 24.739-0.1566v31.51l-11.972-0.0184c-9.843-0.0152-12.202-0.0889-13.262-0.4146zm18.293-15.244-0.0697-8.7974h-7.4083c-10.456 0-9.9219-0.46619-9.9219 8.6668 0 5.9989 0.0197 6.2327 0.59532 7.076 1.2126 1.7765 1.6058 1.852 9.6567 1.852h7.2176z" fill="#ef5461"/>
   <path d="m59.298 173.59c-1.3997-1.8264-2.5449-3.375-2.5449-3.4413s3.304-0.15722 7.3422-0.20203c7.2005-0.0799 7.3589-0.0934 8.2061-0.69764 1.1282-0.80469 1.6497-1.8562 1.6497-3.3264v-1.1907l-17.859-0.1584-1.4781-0.69316c-1.8788-0.88107-3.2977-2.2999-4.1788-4.1788l-0.69316-1.4781v-9.2604c0-8.9322 0.02027-9.3043 0.57174-10.498 0.80978-1.7522 2.5441-3.5246 4.2856-4.3799l1.4926-0.73302 24.739-0.1566v18.391c0 17.767-0.01802 18.439-0.53128 19.811-0.75557 2.0194-2.089 3.4508-4.1693 4.4757l-1.768 0.87101-12.519 0.1664zm14.653-24.645v-8.882l-7.4868 0.0846c-8.2856 0.0936-8.3771 0.1118-9.4582 1.8849-0.47034 0.77139-0.51563 1.3643-0.51654 6.7626-0.0011 5.5855 0.03124 5.9744 0.57414 6.9404 0.35795 0.63688 0.9824 1.2249 1.6536 1.5572 1.0005 0.49523 1.5907 0.53389 8.1561 0.53408l7.0776 2.1e-4zm-66.688 15.401c-2.3635-0.63745-4.5449-2.5326-5.6391-4.8989-0.54355-1.1755-0.5655-1.5825-0.5655-10.483v-9.2604l0.6913-1.4552c0.87936-1.8511 2.3524-3.3241 4.2035-4.2035l1.4552-0.6913 8.9297-0.0822 8.9297-0.0821v-12.139h6.8792v43.656l-11.84-0.0179c-8.4727-0.0128-12.182-0.11019-13.044-0.3425zm18.005-15.382v-8.8636l-6.9453 2e-3c-3.8199 8e-4 -7.3688 0.11912-7.8864 0.26291-0.51759 0.14379-1.2915 0.62695-1.7198 1.0737l-0.77871 0.81214-0.080383 6.1262c-0.044211 3.3694-0.014481 6.3887 0.066069 6.7097 0.23323 0.92926 1.4397 2.1867 2.3514 2.4506 0.46088 0.13343 4.0229 0.25334 7.9156 0.26646l7.0776 0.0239zm12.171 0v-15.743h6.8792v31.485h-6.8792zm48.683 0v-15.743h6.8792v31.485h-6.8792zm-48.683-24.474v-3.4396h6.8792v6.8792h-6.8792zm48.683 0v-3.4396h6.8792v6.8792h-6.8792z" fill="#76777a"/>
  </g>
 </g>
</svg>
